<svg width="412" height="244" viewBox="0 0 412 244" fill="none" xmlns="http://www.w3.org/2000/svg">
<path d="M8.7269 169.451V142.716L66.8369 51.1533H90.5935V87.4461H76.8105L42.8033 141.331V142.439H126.956V169.451H8.7269ZM77.2261 193V161.278L77.9187 149.573V51.1533H109.987V193H77.2261ZM203.593 196.463C191.218 196.463 180.552 193.531 171.594 187.667C162.637 181.757 155.734 173.284 150.885 162.248C146.037 151.166 143.636 137.845 143.682 122.284C143.728 106.724 146.152 93.518 150.955 82.6671C155.803 71.77 162.683 63.4818 171.594 57.8024C180.552 52.0768 191.218 49.214 203.593 49.214C215.968 49.214 226.634 52.0768 235.592 57.8024C244.595 63.4818 251.522 71.77 256.37 82.6671C261.218 93.5642 263.619 106.77 263.573 122.284C263.573 137.891 261.149 151.236 256.301 162.317C251.452 173.399 244.549 181.872 235.592 187.736C226.68 193.554 216.014 196.463 203.593 196.463ZM203.593 168.412C210.981 168.412 216.96 164.649 221.532 157.123C226.103 149.55 228.365 137.937 228.319 122.284C228.319 112.034 227.28 103.584 225.202 96.9349C223.125 90.2397 220.239 85.2529 216.545 81.9745C212.851 78.6961 208.534 77.057 203.593 77.057C196.251 77.057 190.318 80.774 185.793 88.208C181.268 95.5959 178.982 106.955 178.936 122.284C178.89 132.674 179.883 141.285 181.914 148.119C183.992 154.953 186.901 160.055 190.641 163.426C194.381 166.75 198.698 168.412 203.593 168.412ZM281.477 169.451V142.716L339.587 51.1533H363.344V87.4461H349.561L315.553 141.331V142.439H399.706V169.451H281.477ZM349.976 193V161.278L350.669 149.573V51.1533H382.737V193H349.976Z" fill="url(#paint0_linear_1_3)"/>
<defs>
<linearGradient id="paint0_linear_1_3" x1="408" y1="93.719" x2="-18.2167" y2="122.376" gradientUnits="userSpaceOnUse">
<stop stop-color="#3D6EAD"/>
<stop offset="1" stop-color="#132133"/>
</linearGradient>
</defs>
</svg>
