<svg width="409" height="244" viewBox="0 0 409 244" fill="none" xmlns="http://www.w3.org/2000/svg">
<path d="M64.7591 194.939C54.4161 194.939 45.2275 193.069 37.1932 189.329C29.1589 185.589 22.81 180.441 18.1464 173.884C13.529 167.327 11.1279 159.801 10.9432 151.305H44.1886C44.4656 156.523 46.5896 160.724 50.5606 163.91C54.5316 167.05 59.2644 168.62 64.7591 168.62C69.0533 168.62 72.8626 167.674 76.1872 165.78C79.5117 163.887 82.1205 161.232 84.0137 157.815C85.9068 154.352 86.8303 150.381 86.7841 145.902C86.8303 141.331 85.8837 137.337 83.9444 133.92C82.0513 130.503 79.4194 127.848 76.0487 125.955C72.7241 124.016 68.8917 123.046 64.5513 123.046C60.4418 123 56.5401 123.901 52.8462 125.748C49.1984 127.594 46.428 130.111 44.5349 133.297L14.2678 127.618L20.432 51.1533H111.441V78.7885H48.6213L45.366 112.242H46.1971C48.552 108.317 52.3383 105.085 57.5559 102.545C62.8198 99.9593 68.7993 98.6664 75.4946 98.6664C83.9906 98.6664 91.5631 100.652 98.2122 104.623C104.907 108.548 110.171 113.996 114.004 120.968C117.882 127.941 119.822 135.929 119.822 144.933C119.822 154.676 117.513 163.31 112.896 170.836C108.324 178.363 101.906 184.273 93.641 188.567C85.422 192.815 75.7947 194.939 64.7591 194.939ZM197.307 196.463C184.933 196.463 174.267 193.531 165.309 187.667C156.351 181.757 149.448 173.284 144.6 162.248C139.752 151.166 137.35 137.845 137.397 122.284C137.443 106.724 139.867 93.518 144.669 82.6671C149.517 71.77 156.397 63.4818 165.309 57.8024C174.267 52.0768 184.933 49.214 197.307 49.214C209.682 49.214 220.348 52.0768 229.306 57.8024C238.31 63.4818 245.236 71.77 250.084 82.6671C254.933 93.5642 257.334 106.77 257.288 122.284C257.288 137.891 254.863 151.236 250.015 162.317C245.167 173.399 238.264 181.872 229.306 187.736C220.394 193.554 209.728 196.463 197.307 196.463ZM197.307 168.412C204.695 168.412 210.675 164.649 215.246 157.123C219.817 149.55 222.08 137.937 222.034 122.284C222.034 112.034 220.995 103.584 218.917 96.9349C216.839 90.2397 213.953 85.2529 210.259 81.9745C206.565 78.6961 202.248 77.057 197.307 77.057C189.966 77.057 184.032 80.774 179.507 88.208C174.982 95.5959 172.697 106.955 172.651 122.284C172.604 132.674 173.597 141.285 175.629 148.119C177.707 154.953 180.616 160.055 184.356 163.426C188.096 166.75 192.413 168.412 197.307 168.412ZM335.587 196.463C323.213 196.463 312.546 193.531 303.589 187.667C294.631 181.757 287.728 173.284 282.88 162.248C278.031 151.166 275.63 137.845 275.676 122.284C275.723 106.724 278.147 93.518 282.949 82.6671C287.797 71.77 294.677 63.4818 303.589 57.8024C312.546 52.0768 323.213 49.214 335.587 49.214C347.962 49.214 358.628 52.0768 367.586 57.8024C376.59 63.4818 383.516 71.77 388.364 82.6671C393.212 93.5642 395.613 106.77 395.567 122.284C395.567 137.891 393.143 151.236 388.295 162.317C383.447 173.399 376.544 181.872 367.586 187.736C358.674 193.554 348.008 196.463 335.587 196.463ZM335.587 168.412C342.975 168.412 348.955 164.649 353.526 157.123C358.097 149.55 360.36 137.937 360.313 122.284C360.313 112.034 359.274 103.584 357.197 96.9349C355.119 90.2397 352.233 85.2529 348.539 81.9745C344.845 78.6961 340.528 77.057 335.587 77.057C328.246 77.057 322.312 80.774 317.787 88.208C313.262 95.5959 310.976 106.955 310.93 122.284C310.884 132.674 311.877 141.285 313.908 148.119C315.986 154.953 318.895 160.055 322.635 163.426C326.375 166.75 330.693 168.412 335.587 168.412Z" fill="url(#paint0_linear_1_14)"/>
<defs>
<linearGradient id="paint0_linear_1_14" x1="405" y1="93.719" x2="-18.1106" y2="121.958" gradientUnits="userSpaceOnUse">
<stop stop-color="#3D6EAD"/>
<stop offset="1" stop-color="#132133"/>
</linearGradient>
</defs>
</svg>
