<svg width="378" height="148" viewBox="0 0 378 148" fill="none" xmlns="http://www.w3.org/2000/svg">
<path d="M54.7591 145.939C44.4161 145.939 35.2275 144.069 27.1932 140.329C19.1589 136.589 12.81 131.441 8.1464 124.884C3.529 118.327 1.12795 110.801 0.943249 102.305H34.1886C34.4656 107.523 36.5896 111.724 40.5606 114.91C44.5316 118.05 49.2644 119.62 54.7591 119.62C59.0533 119.62 62.8626 118.674 66.1872 116.78C69.5117 114.887 72.1205 112.232 74.0137 108.815C75.9068 105.352 76.8303 101.381 76.7841 96.9025C76.8303 92.3312 75.8837 88.3372 73.9444 84.9203C72.0513 81.5034 69.4194 78.8484 66.0487 76.9553C62.7241 75.016 58.8917 74.0463 54.5513 74.0463C50.4418 74.0001 46.5401 74.9005 42.8462 76.7475C39.1984 78.5945 36.428 81.1109 34.5349 84.297L4.26778 78.6175L10.432 2.15333H101.441V29.7885H38.6213L35.366 63.2416H36.1971C38.552 59.3168 42.3383 56.0846 47.5559 53.545C52.8198 50.9593 58.7993 49.6664 65.4946 49.6664C73.9906 49.6664 81.5631 51.6519 88.2122 55.6229C94.9074 59.5477 100.171 64.9962 104.004 71.9685C107.882 78.9408 109.822 86.9289 109.822 95.9328C109.822 105.676 107.513 114.31 102.896 121.836C98.3243 129.363 91.9061 135.273 83.641 139.567C75.422 143.815 65.7947 145.939 54.7591 145.939ZM187.307 147.463C174.933 147.463 164.267 144.531 155.309 138.667C146.351 132.757 139.448 124.284 134.6 113.248C129.752 102.166 127.35 88.8451 127.397 73.2844C127.443 57.7238 129.867 44.518 134.669 33.6671C139.517 22.77 146.397 14.4818 155.309 8.8024C164.267 3.07681 174.933 0.214016 187.307 0.214016C199.682 0.214016 210.348 3.07681 219.306 8.8024C228.31 14.4818 235.236 22.77 240.084 33.6671C244.933 44.5642 247.334 57.77 247.288 73.2844C247.288 88.8913 244.863 102.236 240.015 113.317C235.167 124.399 228.264 132.872 219.306 138.736C210.394 144.554 199.728 147.463 187.307 147.463ZM187.307 119.412C194.695 119.412 200.675 115.649 205.246 108.123C209.817 100.55 212.08 88.9374 212.034 73.2844C212.034 63.0338 210.995 54.584 208.917 47.9349C206.839 41.2397 203.953 36.2529 200.259 32.9745C196.565 29.6961 192.248 28.057 187.307 28.057C179.966 28.057 174.032 31.774 169.507 39.208C164.982 46.5959 162.697 57.9547 162.651 73.2844C162.604 83.6736 163.597 92.2851 165.629 99.1188C167.707 105.953 170.616 111.055 174.356 114.426C178.096 117.75 182.413 119.412 187.307 119.412ZM320.877 145.939C310.073 145.939 300.492 144.092 292.134 140.398C283.823 136.658 277.266 131.51 272.464 124.953C267.662 118.396 265.215 110.847 265.122 102.305H299.614C299.753 105.398 300.746 108.146 302.593 110.547C304.439 112.902 306.956 114.749 310.142 116.088C313.328 117.427 316.953 118.096 321.016 118.096C325.079 118.096 328.658 117.381 331.751 115.949C334.891 114.472 337.339 112.463 339.093 109.924C340.848 107.338 341.702 104.383 341.656 101.058C341.702 97.7336 340.755 94.7785 338.816 92.1927C336.877 89.607 334.129 87.5984 330.574 86.167C327.065 84.7356 322.909 84.0199 318.107 84.0199H304.324V59.64H318.107C322.309 59.64 326.003 58.9474 329.189 57.5622C332.421 56.177 334.937 54.2377 336.738 51.7443C338.539 49.2047 339.416 46.2957 339.37 43.0174C339.416 39.8313 338.654 37.0378 337.085 34.6368C335.561 32.1895 333.414 30.2964 330.643 28.9574C327.919 27.6183 324.756 26.9488 321.155 26.9488C317.368 26.9488 313.928 27.6183 310.835 28.9574C307.787 30.2964 305.363 32.1895 303.562 34.6368C301.761 37.084 300.815 39.9237 300.722 43.1559H267.962C268.054 34.706 270.409 27.272 275.027 20.8538C279.644 14.3894 285.924 9.33339 293.866 5.68564C301.854 2.03789 310.95 0.214016 321.155 0.214016C331.313 0.214016 340.247 1.99172 347.959 5.54712C355.67 9.10252 361.672 13.9508 365.966 20.0919C370.261 26.1869 372.408 33.0899 372.408 40.801C372.454 48.7891 369.845 55.3689 364.581 60.5404C359.364 65.7119 352.645 68.8979 344.426 70.0984V71.2066C355.416 72.4995 363.704 76.0549 369.291 81.8728C374.924 87.6907 377.718 94.9632 377.672 103.69C377.672 111.909 375.247 119.205 370.399 125.577C365.597 131.902 358.902 136.889 350.313 140.537C341.771 144.139 331.959 145.939 320.877 145.939Z" fill="url(#paint0_linear_14_4)"/>
<defs>
<linearGradient id="paint0_linear_14_4" x1="387" y1="44.719" x2="-27.8249" y2="71.858" gradientUnits="userSpaceOnUse">
<stop stop-color="#3D6EAD"/>
<stop offset="1" stop-color="#132133"/>
</linearGradient>
</defs>
</svg>
