<svg version="1.2" xmlns="http://www.w3.org/2000/svg" viewBox="0 0 235 299" width="235" height="299"><style>tspan{white-space:pre}.a{font-size: 18px;fill: #253068;font-weight: 900;font-family: "Lato-Black", "Lato"}.b{font-size: 9px;fill: #253068;font-weight: 400;font-family: "Lato-Regular", "Lato"}.c{fill:#4a61f0}.d{fill:#324ccc}.e{fill:#ffad01}.f{fill:#f49000}</style><text style="transform:matrix(2,0,0,2,.899,275.527)" ><tspan x="0" y="0" class="a">YOUR BRAND
</tspan></text><text style="transform:matrix(2,0,0,2,50.727,297.985)" ><tspan x="0" y="0" class="b" dx="0 1 1 1 1 1 1 1 1 1 1 1" >SLOGAN HERE
</tspan></text><path class="c" d="m108.6 39.7h-46.7c-21.7 0-39.2-17.5-39.2-39.2h61.6c13 8.8 21.5 22.2 24.3 39.2z"/><path class="d" d="m98.3 0.5l28.1 39.2h-52.1c0 0 0.8-22.2-14.6-39.2z"/><path class="e" d="m158 52.6c-14.1-10.4-32.2-13.4-49.4-12.9-2.8-17-11.3-30.4-24.3-39.2 17.8 0.2 45.4-1.1 62.1 3 7.5 14.1 11.6 30.7 11.6 49.1z"/><path class="c" d="m230 103.6c0.6 64.7-50.9 105.7-119.4 103.1-0.7-55.5 77.6-42.5 71-107.2-0.7-18.1-8.6-36.3-23.6-46.9 0-18.4-4.1-35-11.6-49.1 21.8 4.4 42.8 14.6 58 31q0.1 0 0 0.1c17.5 18.4 25.8 43.9 25.6 69z"/><path class="e" d="m158 52.6v0.1c0 62.5-46.3 103.1-113.7 103.1h-5.7c0-10.1 3.1-19.8 8.6-27.9 5.4-8 13.3-14.5 22.7-18.3 19.1-7.7 39.8-23.7 39.8-56.9 0-4.5-0.4-8.8-1.1-13h5.4q1.6 0.1 3.3 0.1 1.1 0 2.2 0.1 0.7 0 1.4 0.1c0.6 0 1.2 0.1 1.9 0.2q4.1 0.3 8.1 1.1c0.6 0.1 1.2 0.2 1.8 0.3q2.9 0.6 5.7 1.5 0.3 0.1 0.6 0.2c0.9 0.2 1.8 0.5 2.6 0.8 1.8 0.6 3.4 1.3 5.1 2 0.7 0.4 1.4 0.7 2.1 1q1.2 0.6 2.4 1.2 1.2 0.7 2.3 1.4 2.3 1.4 4.5 2.9z"/><path class="e" d="m70.4 104.2v102.5c-26.4 0-47.7-21.3-47.7-47.7v-102.5c26.3 0 47.7 21.4 47.7 47.7z"/><path class="f" d="m133.4 120.8c-15.3 17-37.2 28.5-63.5 32.9v-44.1c7.3-2.9 14.8-7.1 21.3-13 9.5 9.5 30.1 19.1 42.2 24.2z"/></svg>